<svg xmlns="http://www.w3.org/2000/svg" width="28.264" height="25.837" viewBox="0 0 28.264 25.837">
  <g id="warning_1_" data-name="warning (1)" transform="translate(0)">
    <g id="Group_67" data-name="Group 67" transform="translate(0 0)">
      <path id="Path_359" data-name="Path 359" d="M219.678,333.382a1.453,1.453,0,0,0,0,2.905,1.453,1.453,0,0,0,0-2.905Z" transform="translate(-205.546 -315.226)" fill="#ffffff"/>
      <path id="Path_360" data-name="Path 360" d="M27.576,44.186a4.96,4.96,0,0,0,.012-5.02l-9.1-15.757a5.013,5.013,0,0,0-8.7-.006L.675,39.178a5.032,5.032,0,0,0,4.358,7.541H23.206A5,5,0,0,0,27.576,44.186ZM25.6,43.047a2.746,2.746,0,0,1-2.4,1.389H5.027a2.708,2.708,0,0,1-2.37-1.36A2.749,2.749,0,0,1,2.65,40.3l9.11-15.768a2.736,2.736,0,0,1,4.753.006l9.1,15.768A2.713,2.713,0,0,1,25.6,43.047Z" transform="translate(0 -20.882)" fill="#ffffff"/>
      <path id="Path_361" data-name="Path 361" d="M218.846,157.217a1.58,1.58,0,0,0-1.121,1.586c.035.459.064.924.1,1.383.1,1.749.2,3.463.3,5.212a1.064,1.064,0,0,0,1.086,1.023,1.086,1.086,0,0,0,1.086-1.057c0-.36,0-.691.035-1.057.064-1.121.134-2.243.2-3.364.035-.726.1-1.452.134-2.179a1.794,1.794,0,0,0-.134-.726A1.456,1.456,0,0,0,218.846,157.217Z" transform="translate(-205.075 -149.257)" fill="#ffffff"/>
    </g>
  </g>
</svg>
