<svg xmlns="http://www.w3.org/2000/svg" width="351.999" height="313.53" viewBox="0 0 351.999 313.53">
  <g id="Group_55" data-name="Group 55" transform="translate(-0.001)">
    <path id="Path_326" data-name="Path 326" d="M58.324,619.081l-.306-.114a37.738,37.738,0,0,1-22.23-22.641,36.615,36.615,0,0,1-1.9-8.985l-.025-.292.289.052c3.446.619,7.064.96,8.676,1.094l-9.043-5.984.016-.311a7.157,7.157,0,0,1,4.809-6.419,7.28,7.28,0,0,1,7.922,1.947c.9.976,1.85,1.958,2.769,2.908,3.158,3.264,6.424,6.64,8.49,10.624a22.811,22.811,0,0,1,.459,19.631l.079,8.491Z" transform="translate(-17.95 -305.551)" fill="#f2f2f2"/>
    <path id="Path_327" data-name="Path 327" d="M470.987,617.854l0-.032a96.1,96.1,0,0,0-4.839-26.08l0-.014a5.466,5.466,0,0,1,.139-2.6,5.136,5.136,0,0,1,5.726-3.48,11.02,11.02,0,0,0,7.549-1.289,5.371,5.371,0,0,1,4.754-.315,4.978,4.978,0,0,1,2.942,3.37c.031.12.058.241.08.364a76.639,76.639,0,0,0,4.84,26.105l0,.011a5.475,5.475,0,0,1-1.4,4.778,5.084,5.084,0,0,1-4.072,1.5,18.063,18.063,0,0,0-8.538,1.685,4.933,4.933,0,0,1-3.362.236A5.431,5.431,0,0,1,470.987,617.854Z" transform="translate(-247.641 -310.123)" fill="#e9212b"/>
    <path id="Path_328" data-name="Path 328" d="M291.366,392.042V508.591h81.65V392.042a3.918,3.918,0,0,0-2.761-3.75,3.61,3.61,0,0,0-1.171-.182H295.309a3.936,3.936,0,0,0-3.943,3.928v0Zm31.865,40.047a8.717,8.717,0,0,1,17.432,0v13.523a8.716,8.716,0,0,1-17.432,0V432.088Z" transform="translate(-154.822 -206.228)" fill="#f2f2f2"/>
    <path id="Path_329" data-name="Path 329" d="M290.833,637.246v11.239a2.212,2.212,0,0,0,2.193,2.2H370.79a2.2,2.2,0,0,0,2.193-2.2V637.246H290.833Z" transform="translate(-154.539 -338.611)" fill="#e6e6e6"/>
    <path id="Path_330" data-name="Path 330" d="M17.277,10.216v212.8A10.236,10.236,0,0,0,27.5,233.247H342.856a10.236,10.236,0,0,0,10.228-10.228V10.216A10.241,10.241,0,0,0,342.856,0H27.5A10.241,10.241,0,0,0,17.277,10.216Z" transform="translate(-9.18)" fill="#e6e6e6"/>
    <path id="Path_331" data-name="Path 331" d="M348.607,15.762H38.517a5.478,5.478,0,0,0-5.466,5.477v207.53a5.475,5.475,0,0,0,5.466,5.466h310.09a5.475,5.475,0,0,0,5.466-5.466V21.239A5.478,5.478,0,0,0,348.607,15.762ZM270.385,163.2a5.431,5.431,0,0,1-4.859,2.979l-.033,0q-4.459-.621-8.951-.819a5.4,5.4,0,0,1,1.212,1.2,5.084,5.084,0,0,1,.728,4.277,18.062,18.062,0,0,0,.1,8.7,4.933,4.933,0,0,1-.381,3.348,5.431,5.431,0,0,1-4.859,2.979l-.032,0a96.1,96.1,0,0,0-21.428-.571c-.028.18-.064.361-.11.541a18.062,18.062,0,0,0,.1,8.7,4.933,4.933,0,0,1-.381,3.348,5.431,5.431,0,0,1-4.859,2.979l-.032,0a96.1,96.1,0,0,0-22-.518,20.49,20.49,0,0,0,.565,5.441,4.933,4.933,0,0,1-.381,3.348,5.431,5.431,0,0,1-4.859,2.979l-.033,0a96.1,96.1,0,0,0-26.525,0h-.014a5.467,5.467,0,0,1-2.532-.611,5.136,5.136,0,0,1-2.377-6.265,13.28,13.28,0,0,0,.59-2.314,96.1,96.1,0,0,0-24.254.286h-.014a5.467,5.467,0,0,1-2.532-.611,5.136,5.136,0,0,1-2.377-6.265,11.021,11.021,0,0,0,.11-7.657,5.369,5.369,0,0,1,0-3.6,96.1,96.1,0,0,0-18.149.794H121.8a5.467,5.467,0,0,1-2.532-.611,5.136,5.136,0,0,1-2.377-6.265,11.02,11.02,0,0,0,.11-7.657,5.37,5.37,0,0,1,.558-4.731,4.978,4.978,0,0,1,3.85-2.278c.124-.008.248-.013.373-.013a77.4,77.4,0,0,0,9.311,1.052,5.154,5.154,0,0,1-2.018-6.055,11.02,11.02,0,0,0,.11-7.657,5.37,5.37,0,0,1,.558-4.731c.04-.06.086-.114.127-.173q-3.333.23-6.65.691H123.2a5.467,5.467,0,0,1-2.532-.611,5.136,5.136,0,0,1-2.377-6.265,11.02,11.02,0,0,0,.11-7.657,5.37,5.37,0,0,1,.558-4.731,4.978,4.978,0,0,1,3.85-2.278c.124-.008.248-.013.373-.013a77.231,77.231,0,0,0,11.207,1.128,5.228,5.228,0,0,1-.633-4.726,11.021,11.021,0,0,0,.11-7.657,5.37,5.37,0,0,1,.558-4.731,4.978,4.978,0,0,1,3.85-2.278c.124-.008.248-.013.373-.013a77.383,77.383,0,0,0,9.476,1.061,5.238,5.238,0,0,1-.308-4.19,11.02,11.02,0,0,0,.11-7.657,5.37,5.37,0,0,1,.558-4.731,4.978,4.978,0,0,1,3.85-2.278c.124-.008.248-.013.373-.013a77.236,77.236,0,0,0,11.159,1.127,5.243,5.243,0,0,1-.116-3.787,11.021,11.021,0,0,0,.11-7.657,5.37,5.37,0,0,1,.558-4.731,4.978,4.978,0,0,1,3.85-2.278c.124-.008.248-.013.373-.013a76.637,76.637,0,0,0,26.55,0h.011a5.091,5.091,0,0,0,2.055,0h.011a76.637,76.637,0,0,0,26.55,0c.125,0,.249,0,.373.013a4.978,4.978,0,0,1,3.85,2.278,5.37,5.37,0,0,1,.558,4.731,11.02,11.02,0,0,0,.11,7.657,5.243,5.243,0,0,1-.116,3.787,77.237,77.237,0,0,0,11.159-1.127c.125,0,.249,0,.373.013a4.978,4.978,0,0,1,3.85,2.278,5.37,5.37,0,0,1,.558,4.731,11.02,11.02,0,0,0,.11,7.657,5.238,5.238,0,0,1-.308,4.19,77.378,77.378,0,0,0,9.476-1.061c.125,0,.249,0,.373.013a4.978,4.978,0,0,1,3.85,2.278,5.37,5.37,0,0,1,.558,4.731,11.021,11.021,0,0,0,.11,7.657,5.228,5.228,0,0,1-.639,4.736,5.4,5.4,0,0,1,1.1,1.114,5.084,5.084,0,0,1,.728,4.277,18.063,18.063,0,0,0,.1,8.7,4.933,4.933,0,0,1-.381,3.348,5.51,5.51,0,0,1-.685,1.033q3.29-.289,6.565-.863h.011a5.475,5.475,0,0,1,4.442,2.248,5.085,5.085,0,0,1,.728,4.277,18.062,18.062,0,0,0,.1,8.7,4.933,4.933,0,0,1-.381,3.348Z" transform="translate(-17.562 -8.375)" fill="#fff"/>
    <path id="Path_332" data-name="Path 332" d="M354.672,74.149H64.522a1.154,1.154,0,0,1,0-2.308h290.15a1.154,1.154,0,0,1,0,2.308Z" transform="translate(-33.685 -38.174)" fill="#e6e6e6"/>
    <path id="Path_333" data-name="Path 333" d="M346.807,398.5l-.033,0a96.108,96.108,0,0,0-26.525,0h-.014a5.467,5.467,0,0,1-2.532-.611,5.136,5.136,0,0,1-2.377-6.265,11.02,11.02,0,0,0,.11-7.657,5.37,5.37,0,0,1,.558-4.731,4.978,4.978,0,0,1,3.85-2.278c.124-.008.248-.013.373-.013a76.637,76.637,0,0,0,26.55,0h.011a5.475,5.475,0,0,1,4.442,2.248,5.085,5.085,0,0,1,.728,4.277,18.062,18.062,0,0,0,.1,8.7,4.933,4.933,0,0,1-.381,3.348,5.431,5.431,0,0,1-4.859,2.979Z" transform="translate(-167.389 -200.293)" fill="#e9212b"/>
    <path id="Path_334" data-name="Path 334" d="M391.88,318.251l-7.079-5.858c-5.309,2.782-13.386,13.891-13.386,13.891l-18.635,13.4a4.057,4.057,0,1,0,3.8,5.9l25.319-13.38Z" transform="translate(-185.402 -165.995)" fill="#ffb8b8"/>
    <path id="Path_335" data-name="Path 335" d="M416.761,274.7h0a9.695,9.695,0,0,1-.15,14.92l-4.5,3.66s-11.229,16.165-17.074,18.04L380.03,319.16l-6.766-6.784,13.6-11.083s6.255-5.916,6.881-10.247c.384-2.652,4.872-9.877,9.372-15.236a9.67,9.67,0,0,1,13.629-1.123Z" transform="translate(-198.34 -144.741)" fill="#3f3d56"/>
    <path id="Path_336" data-name="Path 336" d="M424.336,623.7h-6.4L414.9,599.031h9.439Z" transform="translate(-220.463 -318.305)" fill="#ffb6b6"/>
    <path id="Path_337" data-name="Path 337" d="M413.217,653.855H393.55v-.249a7.655,7.655,0,0,1,7.655-7.655h0l3.592-2.725,6.7,2.726h1.717v7.9Z" transform="translate(-209.119 -341.789)" fill="#2f2e41"/>
    <path id="Path_338" data-name="Path 338" d="M509.317,566.6l-3.029,5.633-23.168-9,4.47-8.314Z" transform="translate(-256.714 -294.862)" fill="#ffb6b6"/>
    <path id="Path_339" data-name="Path 339" d="M536.408,581.916l-9.314,17.322-.219-.118a7.655,7.655,0,0,1-3.117-10.367h0l-.7-4.455,5.575-4.613.813-1.512Z" transform="translate(-277.822 -307.222)" fill="#2f2e41"/>
    <path id="Path_340" data-name="Path 340" d="M402.835,410.61l-5.645,45.157,2.822,15.139,50.8,22.256,2.822-9.173c-12.986-7.946-26.867-19.972-35.614-20.856,0,0-.726-8.014,5.541-12.959,1.264-1,.988-2.348,1.5-3.571.352-.842,1.75-1.718,2.108-2.581.464-1.119-.11-2.23.356-3.367.262-.639,1.257-.679,1.518-1.319.445-1.091.154-2.781.587-3.859.926-2.3,1.817-4.557,2.63-6.668,2.531-6.574,4.312-11.782,4.087-12.907-.706-3.528-33.515-5.292-33.515-5.292Z" transform="translate(-211.053 -218.184)" fill="#2f2e41"/>
    <path id="Path_341" data-name="Path 341" d="M403.812,506.691l-2.953,19.07,7.453,38.918h9.878c3.549-13.077,3.732-30.264.353-44.8l-14.731-13.184Z" transform="translate(-213.003 -269.239)" fill="#2f2e41"/>
    <path id="Path_342" data-name="Path 342" d="M413.791,277.833l4.554-7.935,4.889-3.922,9.173-1.411,2.548,1.96h0a65.151,65.151,0,0,1,9.55,47.5l-.716,3.878-.454,2.461.2,2.942L442,327.588l.211,3.136.112,1.675.113,1.681.158,2.346c.282,1.339-1.138,1.163-.937,2.343.353,2.073,1.935,5.145-.469,5.155L416.35,338.77c-6.31.026-12.184-7.5-6.092-13.59l3.533-47.346Z" transform="translate(-216.635 -140.581)" fill="#3f3d56"/>
    <circle id="Ellipse_42" data-name="Ellipse 42" cx="12.061" cy="12.061" r="12.061" transform="translate(196.721 97.652)" fill="#ffb8b8"/>
    <path id="Path_343" data-name="Path 343" d="M430.149,229.415a30.993,30.993,0,0,0,5.272-.368c1.728-.351,5.6-3.185,6.673-4.89h0a15.23,15.23,0,0,0,1.6-4.682,13.855,13.855,0,0,0-2.423-11,4.377,4.377,0,0,0-1.768-1.509c-.063-.025-.129-.047-.194-.065a5.4,5.4,0,0,1-2.687-1.662,4.454,4.454,0,0,0-.447-.46,6.652,6.652,0,0,0-2.776-1.394c-1.65-.442-4.038,0-7.1,1.3a7.465,7.465,0,0,1-4.511.139.423.423,0,0,0-.4.136,2.987,2.987,0,0,1-2.03.809c-.462.02-.947.66-1.533,1.495-.133.189-.288.411-.4.545l-.015-.258-.261.288a3.624,3.624,0,0,0,1.636,5.9,7.068,7.068,0,0,0,1.422.227c.291.026.592.053.88.1a5.464,5.464,0,0,1,4.061,3.546,1.429,1.429,0,0,0,2.157.694,2.361,2.361,0,0,1,2.151-.392,1.567,1.567,0,0,1,.693.786,2.043,2.043,0,0,0,.775.9c1.171.6,1.252,3.279.831,5.509-.405,2.15-1.207,3.7-1.949,3.782-.571.059-.637.1-.678.2l-.037.09.064.085A2.334,2.334,0,0,0,430.149,229.415Z" transform="translate(-221.163 -107.984)" fill="#2f2e41"/>
    <path id="Path_344" data-name="Path 344" d="M357.807,219.5l-.033,0a96.107,96.107,0,0,0-26.525,0h-.014a5.467,5.467,0,0,1-2.532-.611,5.136,5.136,0,0,1-2.377-6.265,11.02,11.02,0,0,0,.11-7.657,5.37,5.37,0,0,1,.558-4.731,4.978,4.978,0,0,1,3.85-2.278c.124-.008.248-.013.373-.013a76.638,76.638,0,0,0,26.55,0h.011a5.475,5.475,0,0,1,4.442,2.248,5.085,5.085,0,0,1,.728,4.277,18.062,18.062,0,0,0,.1,8.7,4.933,4.933,0,0,1-.381,3.348,5.431,5.431,0,0,1-4.859,2.979Z" transform="translate(-173.234 -105.179)" fill="#e9212b"/>
    <path id="Path_345" data-name="Path 345" d="M379.462,259.52l4.991-7.715c-3.384-4.947-15.36-11.671-15.36-11.671L353.6,223.193a4.057,4.057,0,1,0-5.414,4.468l16.247,23.582,15.026,8.277Z" transform="translate(-183.611 -116.795)" fill="#ffb8b8"/>
    <path id="Path_346" data-name="Path 346" d="M410.991,278.656h0a9.694,9.694,0,0,1-14.836,1.595l-4.161-4.043s-17.44-9.107-19.986-14.692l-11.427-16.209,7.662-6.912L381.561,250.5s6.132,7.09,10.506,7.206c2.679.071,10.379,3.685,16.226,7.527a9.67,9.67,0,0,1,2.708,13.4l-.011.017Z" transform="translate(-191.601 -126.675)" fill="#3f3d56"/>
    <path id="Path_347" data-name="Path 347" d="M184.193,641.316l-.032,0a96.108,96.108,0,0,0-26.525,0h-.014a5.466,5.466,0,0,1-2.532-.611,5.136,5.136,0,0,1-2.377-6.265,11.02,11.02,0,0,0,.11-7.657,5.371,5.371,0,0,1,.558-4.732,4.978,4.978,0,0,1,3.85-2.278c.124-.008.248-.013.373-.013a76.636,76.636,0,0,0,26.55,0h.011a5.475,5.475,0,0,1,4.442,2.248,5.085,5.085,0,0,1,.728,4.277,18.062,18.062,0,0,0,.1,8.7,4.933,4.933,0,0,1-.381,3.348,5.431,5.431,0,0,1-4.859,2.979Z" transform="translate(-80.981 -329.319)" fill="#e9212b"/>
    <path id="Path_348" data-name="Path 348" d="M200.193,599.316l-.032,0a96.1,96.1,0,0,0-26.525,0h-.014a5.467,5.467,0,0,1-2.532-.611,5.136,5.136,0,0,1-2.377-6.265,11.021,11.021,0,0,0,.11-7.657,5.37,5.37,0,0,1,.558-4.731,4.978,4.978,0,0,1,3.85-2.278c.124-.008.248-.013.373-.013a76.635,76.635,0,0,0,26.55,0h.011a5.475,5.475,0,0,1,4.442,2.248,5.084,5.084,0,0,1,.728,4.276,18.062,18.062,0,0,0,.1,8.7,4.933,4.933,0,0,1-.381,3.348,5.431,5.431,0,0,1-4.859,2.979Z" transform="translate(-89.483 -307.002)" fill="#e9212b"/>
    <path id="Path_349" data-name="Path 349" d="M95.16,607.61l.02-.026a96.1,96.1,0,0,0,14.863-21.97l.008-.012a5.465,5.465,0,0,1,1.925-1.755,5.136,5.136,0,0,1,6.521,1.541,11.02,11.02,0,0,0,6.281,4.381,5.371,5.371,0,0,1,3.606,3.113,4.978,4.978,0,0,1-.271,4.465q-.094.16-.2.316a76.635,76.635,0,0,0-14.879,21.989l-.006.009a5.475,5.475,0,0,1-4.352,2.42,5.084,5.084,0,0,1-3.95-1.793,18.063,18.063,0,0,0-7.263-4.794A4.933,4.933,0,0,1,94.9,613.3a5.431,5.431,0,0,1,.255-5.693Z" transform="translate(-50.065 -309.93)" fill="#e9212b"/>
    <path id="Path_350" data-name="Path 350" d="M351.445,666.019.556,666.163a.558.558,0,0,1,0-1.116l350.889-.144a.558.558,0,0,1,0,1.116Z" transform="translate(0 -353.307)" fill="#cacaca"/>
    <g id="Group_54" data-name="Group 54" transform="translate(71.136 17.16)">
      <ellipse id="Ellipse_43" data-name="Ellipse 43" cx="3.963" cy="4.051" rx="3.963" ry="4.051" fill="#3f3d56"/>
      <ellipse id="Ellipse_44" data-name="Ellipse 44" cx="3.963" cy="4.051" rx="3.963" ry="4.051" transform="translate(13.691)" fill="#3f3d56"/>
      <ellipse id="Ellipse_45" data-name="Ellipse 45" cx="3.963" cy="4.051" rx="3.963" ry="4.051" transform="translate(27.381)" fill="#3f3d56"/>
      <path id="Path_351" data-name="Path 351" d="M248.427,44.835a.467.467,0,0,1-.335-.141l-2.674-2.734a.468.468,0,0,1,0-.655l2.674-2.733a.469.469,0,0,1,.67.655l-2.353,2.406,2.353,2.406a.469.469,0,0,1-.335.8Z" transform="translate(-201.472 -37.581)" fill="#3f3d56"/>
      <path id="Path_352" data-name="Path 352" d="M261.048,44.834a.469.469,0,0,1-.335-.8l2.353-2.406-2.353-2.406a.469.469,0,0,1,.67-.655l2.674,2.733a.469.469,0,0,1,0,.655l-2.674,2.734a.467.467,0,0,1-.335.141Z" transform="translate(-209.599 -37.581)" fill="#3f3d56"/>
      <path id="Path_353" data-name="Path 353" d="M553.287,37.619h-4.972a1.026,1.026,0,0,0-1.026,1.026v4.977a1.026,1.026,0,0,0,1.026,1.026h4.972a1.03,1.03,0,0,0,1.031-1.026V38.645A1.03,1.03,0,0,0,553.287,37.619Z" transform="translate(-361.947 -37.15)" fill="#3f3d56"/>
      <path id="Path_354" data-name="Path 354" d="M527.287,37.619h-4.972a1.026,1.026,0,0,0-1.026,1.026v4.977a1.026,1.026,0,0,0,1.026,1.026h4.972a1.03,1.03,0,0,0,1.031-1.026V38.645A1.03,1.03,0,0,0,527.287,37.619Z" transform="translate(-348.131 -37.15)" fill="#3f3d56"/>
      <path id="Path_355" data-name="Path 355" d="M577.787,38.119h-4.972a1.026,1.026,0,0,0-1.026,1.026v4.977a1.026,1.026,0,0,0,1.026,1.026h4.972a1.03,1.03,0,0,0,1.031-1.026V39.145A1.03,1.03,0,0,0,577.787,38.119Z" transform="translate(-374.965 -37.416)" fill="#3f3d56"/>
      <path id="Path_356" data-name="Path 356" d="M378.183,42.159H338.438a1.251,1.251,0,0,0,0,2.5h39.745a1.251,1.251,0,0,0,0-2.5Z" transform="translate(-250.306 -39.562)" fill="#3f3d56"/>
    </g>
  </g>
</svg>
